<svg id="Camada_1" data-name="Camada 1" xmlns="http://www.w3.org/2000/svg" width="150" height="48.529" viewBox="0 0 150 48.529"><defs><style>.cls-1 {
        fill: #fff;
      }

      .cls-2 {
        fill: #808285;
      }

      .cls-3 {
        fill: #00be28;
      }

      .cls-4 {
        fill: #abadae;
      }

      .cls-5 {
        fill: #3fa1ff;
      }</style></defs><path class="cls-1" cx="63.34" cy="45.75" r="36.04" d="M43.844 20.184A15.9 15.9 0 0 1 27.944 36.084A15.9 15.9 0 0 1 12.044 20.184A15.9 15.9 0 0 1 43.844 20.184z"/><path class="cls-5" d="M27.944 4.288c-8.784 0 -15.9 7.116 -15.9 15.9S19.16 36.088 27.944 36.088s15.9 -7.116 15.9 -15.9S36.728 4.288 27.944 4.288m7.91 22.399 -0.538 3.384c-0.062 0.375 -0.49 0.485 -0.957 0.234L24.543 25.094l-0.393 2.466c-0.071 0.432 -0.424 0.384 -0.799 -0.115l-3.062 -4.129 -3.066 -4.129c-0.375 -0.499 -0.3 -0.949 0.159 -1.01l3.803 -0.49 1.69 -0.221 2.656 1.412 -0.229 1.465 4.31 2.285 -0.154 0.997c-0.075 0.441 0.243 0.746 0.706 0.684l2.113 -0.269 2.85 1.509c0.463 0.251 0.794 0.754 0.732 1.129Zm2.656 -4.5 -3.803 0.494 -3.799 0.49c-0.459 0.053 -0.772 -0.251 -0.706 -0.688l0.388 -2.462 -9.816 -5.21c-0.468 -0.251 -0.799 -0.754 -0.741 -1.129l0.538 -3.384c0.066 -0.375 0.49 -0.485 0.957 -0.234l9.821 5.21 0.388 -2.466c0.071 -0.432 0.424 -0.384 0.799 0.115l3.062 4.129 3.066 4.129c0.375 0.499 0.3 0.949 -0.159 1.01Z"/><g><g><path class="cls-3" d="M137.466 44.241h-6.794c-0.326 0 -0.64 -0.132 -0.874 -0.362 -0.234 -0.234 -0.362 -0.547 -0.362 -0.874v-6.794h6.794c0.326 0 0.64 0.128 0.874 0.362 0.229 0.229 0.362 0.547 0.362 0.874z"/><path class="cls-1" d="M133.169 42.349h-1.509c-0.119 0.009 -0.238 -0.022 -0.335 -0.088s-0.168 -0.168 -0.203 -0.282l-0.944 -2.435h1.01c0.119 -0.013 0.238 0.022 0.34 0.088 0.097 0.071 0.168 0.172 0.199 0.287l0.419 1.24h0.168l0.944 -2.594h1.822c0.896 0 1.39 0.428 1.39 1.182 0 0.199 -0.049 0.393 -0.15 0.565s-0.251 0.309 -0.428 0.397c0.084 0.176 0.154 0.353 0.221 0.534 0.269 0.715 0.428 0.935 0.604 1.107h-0.962c-0.428 0 -0.693 -0.19 -0.856 -0.604l-0.587 -1.54c0.079 0.018 0.159 0.022 0.243 0.022 0.362 0 0.56 -0.124 0.56 -0.353s-0.163 -0.326 -0.494 -0.326h-0.384l-1.063 2.797Z"/></g><g><path class="cls-4" d="M86.603 40.182c0 0.269 -0.062 1.151 -0.882 1.151 -0.644 0 -0.732 -0.454 -0.732 -0.944v-2.285h-0.865v2.321c0 0.556 0.093 0.935 0.291 1.2 0.243 0.309 0.6 0.459 1.094 0.459 0.454 0 0.865 -0.19 1.116 -0.507v0.419h0.856v-3.891h-0.874v2.082Z"/><path class="cls-4" d="M92.656 38.038c-0.507 0 -0.918 0.234 -1.191 0.675 -0.199 -0.441 -0.587 -0.675 -1.129 -0.675 -0.472 0 -0.851 0.265 -1.054 0.56l0.009 -0.485h-0.874v3.882h0.874v-2.016c0 -0.551 0.221 -1.2 0.851 -1.2 0.432 0 0.626 0.296 0.626 0.962v2.254h0.874v-2.016c0 -0.551 0.221 -1.2 0.851 -1.2 0.432 0 0.635 0.304 0.635 0.962v2.254h0.865v-2.343c0 -1.068 -0.45 -1.61 -1.332 -1.61Z"/><path class="cls-4" d="M96.225 38.038c-0.662 0 -1.187 0.243 -1.443 0.388l-0.044 0.026 0.278 0.613 0.053 -0.035c0.053 -0.031 0.525 -0.318 1.107 -0.318s0.882 0.291 0.882 0.803v0.097l-0.957 0.035c-0.971 0.044 -1.531 0.485 -1.531 1.209 0 0.803 0.684 1.222 1.359 1.222 0.596 0 0.957 -0.296 1.147 -0.485l0.009 0.397h0.847v-2.246c0 -0.587 -0.124 -0.953 -0.419 -1.262 -0.304 -0.304 -0.715 -0.446 -1.288 -0.446m0.843 2.144v0.732c-0.093 0.137 -0.397 0.512 -0.904 0.512 -0.432 0 -0.724 -0.238 -0.724 -0.596 0 -0.459 0.437 -0.578 0.807 -0.596l0.825 -0.053Z"/><path class="cls-4" d="m102.256 39.812 -0.512 -0.185c-0.371 -0.119 -0.701 -0.247 -0.701 -0.512 0 -0.362 0.344 -0.415 0.547 -0.415 0.326 0 0.684 0.154 0.913 0.388l0.049 0.049 0.379 -0.56 -0.031 -0.031c-0.322 -0.344 -0.754 -0.512 -1.328 -0.512 -0.64 0 -1.328 0.357 -1.328 1.134 0 0.697 0.565 0.962 0.988 1.103l0.247 0.084c0.375 0.124 0.728 0.238 0.728 0.547 0 0.437 -0.468 0.485 -0.666 0.485 -0.344 0 -0.772 -0.212 -1.072 -0.525l-0.044 -0.044 -0.432 0.525 0.026 0.035c0.344 0.45 0.882 0.697 1.513 0.697 0.909 0 1.491 -0.49 1.491 -1.249 0 -0.459 -0.26 -0.803 -0.776 -1.019Z"/><path class="cls-4" d="M105.472 38.038c-1.191 0 -2.056 0.851 -2.056 2.025s0.865 2.016 2.056 2.016 2.047 -0.847 2.047 -2.016 -0.86 -2.025 -2.047 -2.025m1.169 1.999c0 0.754 -0.481 1.279 -1.169 1.279s-1.178 -0.525 -1.178 -1.279 0.485 -1.271 1.178 -1.271 1.169 0.525 1.169 1.271"/><path class="cls-4" x="245.35" y="82.51" width="1.96" height="12.67" d="M108.243 36.401H109.107V41.991H108.243V36.401z"/><path class="cls-4" d="M112.531 40.182c0 0.269 -0.062 1.151 -0.882 1.151 -0.644 0 -0.732 -0.454 -0.732 -0.944v-2.285h-0.865v2.321c0 0.556 0.093 0.935 0.291 1.2 0.243 0.309 0.6 0.459 1.094 0.459 0.454 0 0.865 -0.19 1.116 -0.507v0.419h0.856v-3.891h-0.874v2.082Z"/><path class="cls-4" d="M117.247 40.862s-0.406 0.459 -1.112 0.459 -1.169 -0.516 -1.169 -1.288c0 -0.724 0.49 -1.249 1.169 -1.249s0.966 0.322 1.09 0.446l0.053 0.053 0.318 -0.657 -0.022 -0.026c-0.079 -0.093 -0.521 -0.56 -1.504 -0.56s-1.985 0.706 -1.985 2.016c0 1.019 0.626 1.809 1.571 1.99l-0.763 1.103h0.887l0.587 -1.081c0.865 -0.097 1.218 -0.556 1.235 -0.578l0.022 -0.026 -0.322 -0.662z"/><path class="cls-4" d="M119.607 38.038c-0.662 0 -1.187 0.243 -1.443 0.388l-0.044 0.026 0.278 0.613 0.053 -0.035c0.053 -0.031 0.525 -0.318 1.107 -0.318s0.882 0.291 0.882 0.803v0.097l-0.957 0.035c-0.971 0.044 -1.531 0.485 -1.531 1.209 0 0.803 0.684 1.222 1.359 1.222 0.596 0 0.957 -0.296 1.147 -0.485l0.009 0.397h0.847v-2.246c0 -0.587 -0.124 -0.953 -0.419 -1.262 -0.304 -0.304 -0.715 -0.446 -1.288 -0.446m0.843 2.144v0.732c-0.093 0.137 -0.397 0.512 -0.904 0.512 -0.432 0 -0.724 -0.238 -0.724 -0.596 0 -0.459 0.437 -0.578 0.807 -0.596l0.825 -0.053Z"/><path class="cls-4" d="M118.959 37.412c0.031 -0.146 0.124 -0.3 0.296 -0.3 0.128 0 0.243 0.071 0.375 0.15 0.172 0.106 0.371 0.225 0.657 0.225 0.41 0 0.754 -0.344 0.785 -0.781v-0.049l-0.472 -0.101 -0.009 0.057c-0.026 0.146 -0.128 0.287 -0.296 0.287 -0.128 0 -0.243 -0.071 -0.379 -0.15 -0.176 -0.106 -0.375 -0.225 -0.653 -0.225 -0.41 0 -0.754 0.349 -0.785 0.79v0.049l0.472 0.101 0.013 -0.053Z"/><path class="cls-4" d="M123.979 38.038c-1.191 0 -2.056 0.851 -2.056 2.025s0.865 2.016 2.056 2.016 2.047 -0.847 2.047 -2.016 -0.86 -2.025 -2.047 -2.025m1.169 1.999c0 0.754 -0.481 1.279 -1.169 1.279s-1.178 -0.525 -1.178 -1.279 0.485 -1.271 1.178 -1.271 1.169 0.525 1.169 1.271"/></g></g><g><g><path class="cls-2" d="M56.347 8.466c-0.128 0.507 -0.287 1.059 -0.459 1.654 -0.181 0.596 -0.362 1.196 -0.551 1.796 -0.19 0.609 -0.384 1.2 -0.578 1.774 -0.199 0.574 -0.379 1.099 -0.556 1.566 -0.181 -0.468 -0.371 -0.993 -0.56 -1.566q-0.285 -0.86 -0.569 -1.774c-0.19 -0.604 -0.375 -1.204 -0.551 -1.796 -0.181 -0.596 -0.335 -1.143 -0.463 -1.654h-3.093c0.613 2.06 1.266 3.966 1.954 5.713s1.368 3.278 2.038 4.579h2.418c0.671 -1.301 1.35 -2.832 2.034 -4.579 0.688 -1.747 1.337 -3.649 1.954 -5.713z"/><path class="cls-2" d="M67.549 9.529c-0.847 -0.896 -2.003 -1.337 -3.468 -1.337 -0.622 0 -1.24 0.115 -1.831 0.349s-1.121 0.582 -1.575 1.037c-0.459 0.459 -0.825 1.028 -1.107 1.712 -0.278 0.684 -0.419 1.482 -0.419 2.396 0 0.759 0.11 1.465 0.326 2.118 0.216 0.649 0.551 1.213 0.997 1.694 0.45 0.476 1.019 0.847 1.703 1.125 0.684 0.274 1.487 0.41 2.418 0.41 0.366 0 0.728 -0.022 1.094 -0.053 0.371 -0.04 0.71 -0.088 1.028 -0.15s0.609 -0.124 0.874 -0.203c0.26 -0.079 0.468 -0.154 0.622 -0.234l-0.388 -2.369c-0.331 0.141 -0.75 0.265 -1.262 0.362 -0.516 0.101 -1.046 0.15 -1.579 0.15 -0.834 0 -1.5 -0.181 -1.999 -0.529 -0.494 -0.353 -0.772 -0.829 -0.838 -1.429h6.618c0.009 -0.159 0.026 -0.34 0.04 -0.538 0.009 -0.203 0.022 -0.388 0.022 -0.56 0 -1.734 -0.424 -3.053 -1.275 -3.944Zm-5.404 3.049c0.04 -0.251 0.101 -0.494 0.185 -0.732 0.084 -0.243 0.203 -0.454 0.366 -0.64 0.154 -0.181 0.349 -0.331 0.582 -0.441s0.521 -0.163 0.843 -0.163 0.622 0.062 0.847 0.176q0.344 0.179 0.569 0.45c0.15 0.185 0.26 0.393 0.335 0.631 0.071 0.234 0.115 0.476 0.124 0.724h-3.856Z"/><path class="cls-2" d="M77.824 16.279a30.441 30.441 0 0 0 -2.188 -2.806l3.574 -5.003h-3.018l-2.043 2.885 -2.029 -2.885h-3.15c0.578 0.821 1.165 1.65 1.751 2.488 0.591 0.838 1.204 1.712 1.849 2.621a43.235 43.235 0 0 0 -1.103 1.262c-0.375 0.45 -0.719 0.909 -1.037 1.39a26.471 26.471 0 0 0 -0.887 1.385c-0.265 0.446 -0.485 0.829 -0.649 1.147h2.969c0.137 -0.26 0.291 -0.538 0.468 -0.838s0.353 -0.6 0.538 -0.909c0.185 -0.304 0.379 -0.56 0.578 -0.763 0.203 -0.203 0.406 -0.388 0.604 -0.56 0.203 0.181 0.415 0.384 0.631 0.604 0.216 0.225 0.415 0.494 0.613 0.812 0.194 0.318 0.371 0.622 0.525 0.918 0.159 0.296 0.291 0.538 0.393 0.732h3.132c-0.384 -0.724 -0.896 -1.553 -1.526 -2.484Z"/><path class="cls-2" d="M89.131 11.382c-0.243 -0.671 -0.596 -1.235 -1.05 -1.694 -0.459 -0.463 -1.019 -0.825 -1.681 -1.076 -0.671 -0.256 -1.425 -0.379 -2.272 -0.379 -0.353 0 -0.719 0.013 -1.103 0.044 -0.388 0.035 -0.763 0.075 -1.138 0.128 -0.371 0.049 -0.728 0.115 -1.063 0.185 -0.34 0.071 -0.644 0.146 -0.904 0.225v13.566h2.916v-3.874q0.496 0.212 1.019 0.331c0.353 0.079 0.728 0.119 1.134 0.119 0.732 0 1.376 -0.128 1.941 -0.393 0.56 -0.26 1.028 -0.622 1.407 -1.094s0.666 -1.032 0.86 -1.681c0.194 -0.653 0.296 -1.376 0.296 -2.171s-0.119 -1.566 -0.357 -2.232ZM84.441 16.491c-0.3 0 -0.6 -0.04 -0.896 -0.119 -0.291 -0.075 -0.529 -0.176 -0.715 -0.296V10.813c0.146 -0.026 0.331 -0.049 0.551 -0.071s0.463 -0.031 0.724 -0.031c0.794 0 1.399 0.274 1.804 0.812 0.406 0.543 0.604 1.262 0.604 2.162 0 1.866 -0.688 2.801 -2.074 2.801Z"/><path class="cls-2" d="M98.651 9.529c-0.847 -0.896 -2.007 -1.337 -3.468 -1.337 -0.631 0 -1.24 0.115 -1.831 0.349s-1.121 0.582 -1.575 1.037c-0.459 0.459 -0.829 1.028 -1.107 1.712s-0.419 1.482 -0.419 2.396c0 0.759 0.106 1.465 0.326 2.118 0.216 0.649 0.543 1.213 0.993 1.694 0.454 0.476 1.019 0.847 1.703 1.125 0.688 0.274 1.491 0.41 2.422 0.41 0.366 0 0.728 -0.022 1.094 -0.053 0.366 -0.04 0.71 -0.088 1.028 -0.15s0.609 -0.124 0.869 -0.203c0.265 -0.079 0.468 -0.154 0.631 -0.234l-0.393 -2.369c-0.326 0.141 -0.746 0.265 -1.257 0.362 -0.521 0.101 -1.046 0.15 -1.579 0.15 -0.834 0 -1.504 -0.181 -1.999 -0.529 -0.494 -0.353 -0.772 -0.829 -0.838 -1.429h6.618c0.009 -0.159 0.026 -0.34 0.035 -0.538 0.013 -0.203 0.022 -0.388 0.022 -0.56 0 -1.734 -0.424 -3.053 -1.266 -3.944Zm-5.404 3.049c0.035 -0.251 0.101 -0.494 0.185 -0.732 0.084 -0.243 0.203 -0.454 0.357 -0.64 0.159 -0.181 0.353 -0.331 0.591 -0.441 0.234 -0.11 0.516 -0.163 0.843 -0.163s0.618 0.062 0.847 0.176q0.344 0.179 0.569 0.45c0.15 0.185 0.26 0.393 0.331 0.631 0.075 0.234 0.115 0.476 0.128 0.724h-3.856Z"/><path class="cls-2" d="M109.849 11.029c-0.146 -0.574 -0.384 -1.068 -0.724 -1.487 -0.34 -0.415 -0.799 -0.741 -1.385 -0.971 -0.578 -0.229 -1.31 -0.34 -2.184 -0.34s-1.681 0.062 -2.466 0.185c-0.781 0.124 -1.425 0.256 -1.919 0.401v9.944h2.916V10.818c0.185 -0.026 0.393 -0.049 0.631 -0.071 0.234 -0.022 0.454 -0.031 0.666 -0.031 0.679 0 1.143 0.199 1.39 0.591 0.251 0.388 0.375 1.059 0.375 1.999v5.457h2.916V12.949c0 -0.706 -0.075 -1.341 -0.216 -1.919"/><path class="cls-2" d="M118.879 14.819c-0.101 -0.331 -0.269 -0.622 -0.507 -0.887 -0.243 -0.269 -0.574 -0.521 -0.988 -0.75 -0.419 -0.229 -0.949 -0.463 -1.588 -0.697 -0.309 -0.119 -0.569 -0.225 -0.768 -0.326 -0.203 -0.101 -0.366 -0.19 -0.485 -0.274 -0.115 -0.084 -0.194 -0.176 -0.234 -0.265 -0.035 -0.097 -0.053 -0.194 -0.053 -0.313 0 -0.507 0.454 -0.763 1.368 -0.763 0.494 0 0.944 0.044 1.341 0.141 0.393 0.088 0.763 0.194 1.103 0.309l0.507 -2.268c-0.34 -0.137 -0.794 -0.256 -1.368 -0.366s-1.178 -0.163 -1.804 -0.163c-1.253 0 -2.237 0.278 -2.956 0.838 -0.719 0.565 -1.076 1.328 -1.076 2.294 0 0.494 0.075 0.918 0.221 1.275 0.141 0.349 0.344 0.653 0.604 0.909s0.578 0.476 0.949 0.653c0.375 0.185 0.79 0.357 1.244 0.529 0.591 0.225 1.024 0.419 1.315 0.6 0.287 0.176 0.428 0.379 0.428 0.613 0 0.3 -0.11 0.503 -0.335 0.609 -0.221 0.106 -0.6 0.154 -1.134 0.154s-1.024 -0.053 -1.549 -0.163c-0.521 -0.11 -1.028 -0.265 -1.522 -0.459l-0.49 2.369c0.234 0.106 0.653 0.234 1.257 0.388 0.609 0.159 1.368 0.234 2.281 0.234 1.399 0 2.475 -0.26 3.243 -0.781 0.763 -0.521 1.143 -1.288 1.143 -2.307 0 -0.428 -0.049 -0.803 -0.146 -1.129Z"/><path class="cls-2" d="M128.109 9.529c-0.847 -0.896 -2.003 -1.337 -3.468 -1.337 -0.622 0 -1.24 0.115 -1.826 0.349a4.588 4.588 0 0 0 -1.579 1.037c-0.459 0.459 -0.825 1.028 -1.103 1.712 -0.287 0.684 -0.424 1.482 -0.424 2.396 0 0.759 0.11 1.465 0.326 2.118 0.216 0.649 0.551 1.213 0.997 1.694 0.45 0.476 1.019 0.847 1.703 1.125 0.684 0.274 1.487 0.41 2.418 0.41 0.366 0 0.728 -0.022 1.099 -0.053 0.366 -0.04 0.706 -0.088 1.024 -0.15s0.609 -0.124 0.874 -0.203c0.26 -0.079 0.468 -0.154 0.622 -0.234l-0.388 -2.369c-0.331 0.141 -0.75 0.265 -1.262 0.362 -0.516 0.101 -1.037 0.15 -1.579 0.15 -0.834 0 -1.5 -0.181 -1.994 -0.529 -0.499 -0.353 -0.781 -0.829 -0.843 -1.429h6.618c0.009 -0.159 0.026 -0.34 0.04 -0.538 0.009 -0.203 0.022 -0.388 0.022 -0.56 0 -1.734 -0.424 -3.053 -1.275 -3.944Zm-5.404 3.049c0.04 -0.251 0.101 -0.494 0.185 -0.732 0.084 -0.243 0.203 -0.454 0.366 -0.64 0.154 -0.181 0.349 -0.331 0.582 -0.441s0.521 -0.163 0.843 -0.163 0.622 0.062 0.847 0.176q0.344 0.179 0.569 0.45c0.15 0.185 0.26 0.393 0.335 0.631 0.071 0.234 0.115 0.476 0.124 0.724h-3.856Z"/><path class="cls-2" d="M137.806 14.819a2.206 2.206 0 0 0 -0.507 -0.887c-0.238 -0.269 -0.569 -0.521 -0.988 -0.75 -0.415 -0.229 -0.944 -0.463 -1.584 -0.697 -0.313 -0.119 -0.569 -0.225 -0.772 -0.326s-0.362 -0.19 -0.481 -0.274 -0.194 -0.176 -0.234 -0.265c-0.04 -0.097 -0.062 -0.194 -0.062 -0.313 0 -0.507 0.459 -0.763 1.372 -0.763 0.494 0 0.94 0.044 1.337 0.141 0.401 0.088 0.768 0.194 1.107 0.309l0.503 -2.268c-0.34 -0.137 -0.794 -0.256 -1.368 -0.366s-1.174 -0.163 -1.804 -0.163c-1.249 0 -2.237 0.278 -2.951 0.838 -0.719 0.565 -1.076 1.328 -1.076 2.294 0 0.494 0.071 0.918 0.216 1.275 0.146 0.349 0.344 0.653 0.609 0.909 0.26 0.256 0.574 0.476 0.949 0.653 0.371 0.185 0.785 0.357 1.244 0.529 0.582 0.225 1.024 0.419 1.31 0.6 0.291 0.176 0.428 0.379 0.428 0.613q0 0.45 -0.331 0.609c-0.225 0.106 -0.6 0.154 -1.134 0.154s-1.028 -0.053 -1.549 -0.163c-0.525 -0.11 -1.032 -0.265 -1.526 -0.459l-0.49 2.369c0.234 0.106 0.653 0.234 1.262 0.388 0.604 0.159 1.368 0.234 2.281 0.234 1.394 0 2.471 -0.26 3.234 -0.781s1.147 -1.288 1.147 -2.307c0 -0.428 -0.049 -0.803 -0.15 -1.129Z"/></g><g><path class="cls-4" d="M55.99 24.344c0.543 0.463 1.107 1.24 1.107 2.528s-0.565 2.096 -1.107 2.554c-0.534 0.463 -1.425 0.847 -2.634 0.847h-2.219V23.488h2.219c1.204 0 2.1 0.384 2.634 0.856m-0.935 4.284c0.331 -0.313 0.693 -0.834 0.693 -1.751s-0.362 -1.456 -0.693 -1.769c-0.34 -0.304 -0.896 -0.551 -1.65 -0.551h-0.966v4.632h0.966c0.754 0 1.306 -0.247 1.65 -0.56"/><path class="cls-4" d="M60.243 30.379c-1.469 0 -2.55 -0.874 -2.55 -2.409s1.134 -2.546 2.524 -2.546c1.496 0 2.4 0.962 2.4 2.232 0 0.247 -0.022 0.64 -0.022 0.64h-3.578c0.119 0.759 0.715 1.121 1.447 1.121 0.653 0 1.235 -0.287 1.469 -0.481l0.503 0.679c-0.269 0.274 -1.006 0.768 -2.188 0.768Zm-0.04 -4.019c-0.763 0 -1.165 0.521 -1.204 1.121h2.329c-0.022 -0.521 -0.221 -1.121 -1.125 -1.121"/><path class="cls-4" d="M65.104 29.435c0.481 0 0.701 -0.176 0.701 -0.454 0 -0.247 -0.19 -0.384 -0.812 -0.591l-0.565 -0.185c-0.724 -0.234 -1.094 -0.657 -1.094 -1.359 0 -0.865 0.803 -1.425 1.738 -1.425 0.865 0 1.346 0.225 1.747 0.512l-0.551 0.834c-0.282 -0.207 -0.693 -0.401 -1.134 -0.401s-0.631 0.159 -0.631 0.384c0 0.207 0.159 0.375 0.701 0.543l0.34 0.106c1.076 0.344 1.456 0.719 1.456 1.407 0 0.904 -0.732 1.575 -1.928 1.575 -0.746 0 -1.579 -0.296 -1.968 -0.737l0.521 -0.856c0.574 0.432 1.063 0.649 1.478 0.649"/><path class="cls-4" d="m69.146 25.513 -0.022 0.697c0.393 -0.569 0.993 -0.807 1.637 -0.807 1.425 0 2.303 1.081 2.303 2.497s-0.913 2.457 -2.391 2.457c-0.746 0 -1.165 -0.256 -1.566 -0.728 0.013 0.296 0.004 0.6 0.009 0.891v1.544h-1.271V25.509h1.306Zm2.612 2.391c0 -0.825 -0.521 -1.474 -1.354 -1.474 -0.772 0 -1.315 0.582 -1.315 1.474 0 0.799 0.534 1.496 1.354 1.496s1.315 -0.697 1.315 -1.496"/><path class="cls-4" d="M76.191 30.379c-1.469 0 -2.55 -0.874 -2.55 -2.409s1.134 -2.546 2.524 -2.546c1.496 0 2.4 0.962 2.4 2.232 0 0.247 -0.022 0.64 -0.022 0.64h-3.578c0.119 0.759 0.715 1.121 1.447 1.121 0.653 0 1.235 -0.287 1.469 -0.481l0.503 0.679c-0.269 0.274 -1.006 0.768 -2.188 0.768Zm-0.044 -4.019c-0.763 0 -1.165 0.521 -1.204 1.121h2.329c-0.022 -0.521 -0.221 -1.121 -1.125 -1.121"/><path class="cls-4" d="M81.053 29.435c0.481 0 0.701 -0.176 0.701 -0.454 0 -0.247 -0.19 -0.384 -0.812 -0.591l-0.565 -0.185c-0.724 -0.234 -1.094 -0.657 -1.094 -1.359 0 -0.865 0.803 -1.425 1.738 -1.425 0.865 0 1.346 0.225 1.747 0.512l-0.551 0.834c-0.282 -0.207 -0.693 -0.401 -1.134 -0.401s-0.631 0.159 -0.631 0.384c0 0.207 0.159 0.375 0.701 0.543l0.34 0.106c1.076 0.344 1.456 0.719 1.456 1.407 0 0.904 -0.732 1.575 -1.928 1.575 -0.746 0 -1.579 -0.296 -1.968 -0.737l0.521 -0.856c0.574 0.432 1.063 0.649 1.478 0.649"/><path class="cls-4" d="M85.09 30.379c-0.944 0 -1.707 -0.503 -1.707 -1.496s0.993 -1.376 1.999 -1.447l1.165 -0.079v-0.128c0 -0.609 -0.41 -0.896 -1.085 -0.896s-1.174 0.234 -1.385 0.393l-0.393 -0.807c0.371 -0.216 1.054 -0.503 1.897 -0.503s1.354 0.216 1.721 0.551c0.353 0.335 0.534 0.768 0.534 1.575v2.722h-1.235l-0.022 -0.551c-0.203 0.344 -0.763 0.657 -1.487 0.657Zm-0.419 -1.535c0 0.401 0.313 0.679 0.843 0.679 0.503 0 0.874 -0.287 1.046 -0.521v-0.874l-0.874 0.049c-0.684 0.04 -1.015 0.265 -1.015 0.671Z"/><path class="cls-4" d="M90.578 29.435c0.481 0 0.701 -0.176 0.701 -0.454 0 -0.247 -0.19 -0.384 -0.812 -0.591l-0.565 -0.185c-0.724 -0.234 -1.094 -0.657 -1.094 -1.359 0 -0.865 0.803 -1.425 1.738 -1.425 0.865 0 1.346 0.225 1.747 0.512l-0.551 0.834c-0.282 -0.207 -0.693 -0.401 -1.134 -0.401s-0.631 0.159 -0.631 0.384c0 0.207 0.159 0.375 0.701 0.543l0.34 0.106c1.076 0.344 1.456 0.719 1.456 1.407 0 0.904 -0.732 1.575 -1.928 1.575 -0.746 0 -1.579 -0.296 -1.968 -0.737l0.521 -0.856c0.574 0.432 1.063 0.649 1.478 0.649"/><path class="cls-4" d="M97.5 30.379c-1.469 0 -2.55 -0.874 -2.55 -2.409s1.134 -2.546 2.524 -2.546c1.496 0 2.4 0.962 2.4 2.232 0 0.247 -0.022 0.64 -0.022 0.64h-3.578c0.119 0.759 0.715 1.121 1.447 1.121 0.653 0 1.235 -0.287 1.469 -0.481l0.503 0.679c-0.269 0.274 -1.006 0.768 -2.188 0.768Zm-0.04 -4.019c-0.763 0 -1.165 0.521 -1.204 1.121h2.329c-0.022 -0.521 -0.221 -1.121 -1.125 -1.121"/><path class="cls-4" d="m103.509 23.488 1.787 5.043 1.787 -5.043h1.328l-2.563 6.794h-1.165l-2.563 -6.794h1.385Z"/><path class="cls-4" d="M109.703 23.36c0.45 0 0.772 0.296 0.772 0.697s-0.322 0.697 -0.772 0.697 -0.772 -0.287 -0.772 -0.697 0.322 -0.697 0.772 -0.697m0.64 2.153v4.76h-1.288V25.513z"/><path class="cls-4" d="M112.906 30.379c-0.944 0 -1.707 -0.503 -1.707 -1.496s0.993 -1.376 1.999 -1.447l1.165 -0.079v-0.128c0 -0.609 -0.41 -0.896 -1.085 -0.896s-1.174 0.234 -1.385 0.393l-0.393 -0.807c0.371 -0.216 1.054 -0.503 1.897 -0.503s1.354 0.216 1.721 0.551c0.353 0.335 0.534 0.768 0.534 1.575v2.722h-1.235l-0.022 -0.551c-0.203 0.344 -0.763 0.657 -1.487 0.657Zm-0.419 -1.535c0 0.401 0.313 0.679 0.843 0.679 0.503 0 0.874 -0.287 1.046 -0.521v-0.874l-0.874 0.049c-0.684 0.04 -1.015 0.265 -1.015 0.671Z"/><path class="cls-4" d="M121.046 31.346c-0.424 0.432 -1.046 0.834 -2.21 0.834s-2.021 -0.543 -2.259 -0.706l0.534 -0.874c0.313 0.216 1.103 0.56 1.729 0.56 0.693 0 1.054 -0.216 1.235 -0.424s0.331 -0.6 0.331 -1.129v-0.247c-0.344 0.499 -0.935 0.759 -1.646 0.759 -1.235 0 -2.303 -0.776 -2.303 -2.241 0 -1.346 0.913 -2.449 2.391 -2.449 0.653 0 1.218 0.234 1.566 0.768 -0.009 -0.216 -0.009 -0.503 -0.009 -0.631v-0.049h1.275v3.776c0 1.041 -0.221 1.632 -0.631 2.056Zm-0.574 -3.56c0 -0.671 -0.521 -1.368 -1.399 -1.368 -0.812 0 -1.315 0.618 -1.315 1.368s0.481 1.346 1.354 1.346 1.354 -0.6 1.354 -1.346Z"/><path class="cls-4" d="M125.118 30.379c-1.469 0 -2.55 -0.874 -2.55 -2.409s1.134 -2.546 2.524 -2.546c1.496 0 2.4 0.962 2.4 2.232 0 0.247 -0.022 0.64 -0.022 0.64h-3.578c0.119 0.759 0.715 1.121 1.447 1.121 0.653 0 1.235 -0.287 1.469 -0.481l0.503 0.679c-0.269 0.274 -1.006 0.768 -2.188 0.768Zm-0.044 -4.019c-0.763 0 -1.165 0.521 -1.204 1.121h2.329c-0.022 -0.521 -0.221 -1.121 -1.125 -1.121"/><path class="cls-4" d="m129.626 25.513 -0.009 0.776c0.291 -0.618 0.851 -0.865 1.487 -0.865 1.399 0 1.747 0.887 1.747 2.025v2.824h-1.288v-2.546c0 -0.706 -0.132 -1.266 -0.874 -1.266 -0.794 0 -1.063 0.649 -1.063 1.447v2.369h-1.288V25.518h1.288Z"/><path class="cls-4" d="M135.649 29.435c0.481 0 0.701 -0.176 0.701 -0.454 0 -0.247 -0.19 -0.384 -0.812 -0.591l-0.565 -0.185c-0.724 -0.234 -1.094 -0.657 -1.094 -1.359 0 -0.865 0.803 -1.425 1.738 -1.425 0.865 0 1.346 0.225 1.747 0.512l-0.551 0.834c-0.282 -0.207 -0.693 -0.401 -1.134 -0.401s-0.631 0.159 -0.631 0.384c0 0.207 0.159 0.375 0.701 0.543l0.34 0.106c1.076 0.344 1.456 0.719 1.456 1.407 0 0.904 -0.732 1.575 -1.928 1.575 -0.746 0 -1.579 -0.296 -1.968 -0.737l0.521 -0.856c0.574 0.432 1.063 0.649 1.478 0.649"/></g></g></svg>