<?xml version="1.0" encoding="UTF-8"?>
<svg id="Camada_1" data-name="Camada 1" xmlns="http://www.w3.org/2000/svg" width="340" height="110" viewBox="0 0 340 110">
  <defs>
    <style>
      .cls-1 {
        fill: #fff;
      }

      .cls-2 {
        fill: #808285;
      }

      .cls-3 {
        fill: #00be28;
      }

      .cls-4 {
        fill: #abadae;
      }

      .cls-5 {
        fill: #3fa1ff;
      }
    </style>
  </defs>
  <circle class="cls-1" cx="63.34" cy="45.75" r="36.04"/>
  <path class="cls-5" d="M63.34,9.72c-19.91,0-36.04,16.13-36.04,36.04s16.13,36.04,36.04,36.04,36.04-16.13,36.04-36.04S83.25,9.72,63.34,9.72ZM81.27,60.49l-1.22,7.67c-.14.85-1.11,1.1-2.17.53l-22.25-11.81-.89,5.59c-.16.98-.96.87-1.81-.26l-6.94-9.36-6.95-9.36c-.85-1.13-.68-2.15.36-2.29l8.62-1.11,3.83-.5,6.02,3.2-.52,3.32,9.77,5.18-.35,2.26c-.17,1,.55,1.69,1.6,1.55l4.79-.61,6.46,3.42c1.05.57,1.8,1.71,1.66,2.56ZM87.29,50.29l-8.62,1.12-8.61,1.11c-1.04.12-1.75-.57-1.6-1.56l.88-5.58-22.25-11.81c-1.06-.57-1.81-1.71-1.68-2.56l1.22-7.67c.15-.85,1.11-1.1,2.17-.53l22.26,11.81.88-5.59c.16-.98.96-.87,1.81.26l6.94,9.36,6.95,9.36c.85,1.13.68,2.15-.36,2.29Z"/>
  <g>
    <g>
      <path class="cls-3" d="M311.59,100.28h-15.4c-.74,0-1.45-.3-1.98-.82-.53-.53-.82-1.24-.82-1.98v-15.4h15.4c.74,0,1.45.29,1.98.82.52.52.82,1.24.82,1.98v15.4Z"/>
      <path class="cls-1" d="M301.85,95.99h-3.42c-.27.02-.54-.05-.76-.2-.22-.15-.38-.38-.46-.64l-2.14-5.52h2.29c.27-.03.54.05.77.2.22.16.38.39.45.65l.95,2.81h.38l2.14-5.88h4.13c2.03,0,3.15.97,3.15,2.68,0,.45-.11.89-.34,1.28-.23.39-.57.7-.97.9.19.4.35.8.5,1.21.61,1.62.97,2.12,1.37,2.51h-2.18c-.97,0-1.57-.43-1.94-1.37l-1.33-3.49c.18.04.36.05.55.05.82,0,1.27-.28,1.27-.8s-.37-.74-1.12-.74h-.87l-2.41,6.34Z"/>
    </g>
    <g>
      <path class="cls-4" d="M196.3,91.08c0,.61-.14,2.61-2,2.61-1.46,0-1.66-1.03-1.66-2.14v-5.18h-1.96v5.26c0,1.26.21,2.12.66,2.72.55.7,1.36,1.04,2.48,1.04,1.03,0,1.96-.43,2.53-1.15v.95h1.94v-8.82h-1.98v4.72Z"/>
      <path class="cls-4" d="M210.02,86.22c-1.15,0-2.08.53-2.7,1.53-.45-1-1.33-1.53-2.56-1.53-1.07,0-1.93.6-2.39,1.27l.02-1.1h-1.98v8.8h1.98v-4.57c0-1.25.5-2.72,1.93-2.72.98,0,1.42.67,1.42,2.18v5.11h1.98v-4.57c0-1.25.5-2.72,1.93-2.72.98,0,1.44.69,1.44,2.18v5.11h1.96v-5.31c0-2.42-1.02-3.65-3.02-3.65Z"/>
      <path class="cls-4" d="M218.11,86.22c-1.5,0-2.69.55-3.27.88l-.1.06.63,1.39.12-.08c.12-.07,1.19-.72,2.51-.72s2,.66,2,1.82v.22l-2.17.08c-2.2.1-3.47,1.1-3.47,2.74,0,1.82,1.55,2.77,3.08,2.77,1.35,0,2.17-.67,2.6-1.1l.02.9h1.92v-5.09c0-1.33-.28-2.16-.95-2.86-.69-.69-1.62-1.01-2.92-1.01ZM220.02,91.08v1.66c-.21.31-.9,1.16-2.05,1.16-.98,0-1.64-.54-1.64-1.35,0-1.04.99-1.31,1.83-1.35l1.87-.12Z"/>
      <path class="cls-4" d="M231.78,90.24l-1.16-.42c-.84-.27-1.59-.56-1.59-1.16,0-.82.78-.94,1.24-.94.74,0,1.55.35,2.07.88l.11.11.86-1.27-.07-.07c-.73-.78-1.71-1.16-3.01-1.16-1.45,0-3.01.81-3.01,2.57,0,1.58,1.28,2.18,2.24,2.5l.56.19c.85.28,1.65.54,1.65,1.24,0,.99-1.06,1.1-1.51,1.1-.78,0-1.75-.48-2.43-1.19l-.1-.1-.98,1.19.06.08c.78,1.02,2,1.58,3.43,1.58,2.06,0,3.38-1.11,3.38-2.83,0-1.04-.59-1.82-1.76-2.31Z"/>
      <path class="cls-4" d="M239.07,86.22c-2.7,0-4.66,1.93-4.66,4.59s1.96,4.57,4.66,4.57,4.64-1.92,4.64-4.57-1.95-4.59-4.64-4.59ZM241.72,90.75c0,1.71-1.09,2.9-2.65,2.9s-2.67-1.19-2.67-2.9,1.1-2.88,2.67-2.88,2.65,1.19,2.65,2.88Z"/>
      <rect class="cls-4" x="245.35" y="82.51" width="1.96" height="12.67"/>
      <path class="cls-4" d="M255.07,91.08c0,.61-.14,2.61-2,2.61-1.46,0-1.66-1.03-1.66-2.14v-5.18h-1.96v5.26c0,1.26.21,2.12.66,2.72.55.7,1.36,1.04,2.48,1.04,1.03,0,1.96-.43,2.53-1.15v.95h1.94v-8.82h-1.98v4.72Z"/>
      <path class="cls-4" d="M265.76,92.62s-.92,1.04-2.52,1.04-2.65-1.17-2.65-2.92c0-1.64,1.11-2.83,2.65-2.83s2.19.73,2.47,1.01l.12.12.72-1.49-.05-.06c-.18-.21-1.18-1.27-3.41-1.27s-4.5,1.6-4.5,4.57c0,2.31,1.42,4.1,3.56,4.51l-1.73,2.5h2.01l1.33-2.45c1.96-.22,2.76-1.26,2.8-1.31l.05-.06-.73-1.5-.12.14Z"/>
      <path class="cls-4" d="M271.11,86.22c-1.5,0-2.69.55-3.27.88l-.1.06.63,1.39.12-.08c.12-.07,1.19-.72,2.51-.72s2,.66,2,1.82v.22l-2.17.08c-2.2.1-3.47,1.1-3.47,2.74,0,1.82,1.55,2.77,3.08,2.77,1.35,0,2.17-.67,2.6-1.1l.02.9h1.92v-5.09c0-1.33-.28-2.16-.95-2.86-.69-.69-1.62-1.01-2.92-1.01ZM273.02,91.08v1.66c-.21.31-.9,1.16-2.05,1.16-.98,0-1.64-.54-1.64-1.35,0-1.04.99-1.31,1.83-1.35l1.87-.12Z"/>
      <path class="cls-4" d="M269.64,84.8c.07-.33.28-.68.67-.68.29,0,.55.16.85.34.39.24.84.51,1.49.51.93,0,1.71-.78,1.78-1.77v-.11s-1.07-.23-1.07-.23l-.02.13c-.06.33-.29.65-.67.65-.29,0-.55-.16-.86-.34-.4-.24-.85-.51-1.48-.51-.93,0-1.71.79-1.78,1.79v.11s1.07.23,1.07.23l.03-.12Z"/>
      <path class="cls-4" d="M281.02,86.22c-2.7,0-4.66,1.93-4.66,4.59s1.96,4.57,4.66,4.57,4.64-1.92,4.64-4.57-1.95-4.59-4.64-4.59ZM283.67,90.75c0,1.71-1.09,2.9-2.65,2.9s-2.67-1.19-2.67-2.9,1.1-2.88,2.67-2.88,2.65,1.19,2.65,2.88Z"/>
    </g>
  </g>
  <g>
    <g>
      <path class="cls-2" d="M127.72,19.19c-.29,1.15-.65,2.4-1.04,3.75-.41,1.35-.82,2.71-1.25,4.07-.43,1.38-.87,2.72-1.31,4.02-.45,1.3-.86,2.49-1.26,3.55-.41-1.06-.84-2.25-1.27-3.55-.43-1.3-.86-2.64-1.29-4.02-.43-1.37-.85-2.73-1.25-4.07-.41-1.35-.76-2.59-1.05-3.75h-7.01c1.39,4.67,2.87,8.99,4.43,12.95,1.56,3.96,3.1,7.43,4.62,10.38h5.48c1.52-2.95,3.06-6.42,4.61-10.38,1.56-3.96,3.03-8.27,4.43-12.95h-6.84Z"/>
      <path class="cls-2" d="M153.11,21.6c-1.92-2.03-4.54-3.03-7.86-3.03-1.41,0-2.81.26-4.15.79-1.34.53-2.54,1.32-3.57,2.35-1.04,1.04-1.87,2.33-2.51,3.88-.63,1.55-.95,3.36-.95,5.43,0,1.72.25,3.32.74,4.8.49,1.47,1.25,2.75,2.26,3.84,1.02,1.08,2.31,1.92,3.86,2.55,1.55.62,3.37.93,5.48.93.83,0,1.65-.05,2.48-.12.84-.09,1.61-.2,2.33-.34s1.38-.28,1.98-.46c.59-.18,1.06-.35,1.41-.53l-.88-5.37c-.75.32-1.7.6-2.86.82-1.17.23-2.37.34-3.58.34-1.89,0-3.4-.41-4.53-1.2-1.12-.8-1.75-1.88-1.9-3.24h15c.02-.36.06-.77.09-1.22.02-.46.05-.88.05-1.27,0-3.93-.96-6.92-2.89-8.94ZM140.86,28.51c.09-.57.23-1.12.42-1.66.19-.55.46-1.03.83-1.45.35-.41.79-.75,1.32-1,.53-.25,1.18-.37,1.91-.37s1.41.14,1.92.4c.52.27.95.61,1.29,1.02.34.42.59.89.76,1.43.16.53.26,1.08.28,1.64h-8.74Z"/>
      <path class="cls-2" d="M176.4,36.9c-1.45-2.11-3.09-4.22-4.96-6.36l8.1-11.34h-6.84l-4.63,6.54-4.6-6.54h-7.14c1.31,1.86,2.64,3.74,3.97,5.64,1.34,1.9,2.73,3.88,4.19,5.94-.81.89-1.65,1.85-2.5,2.86-.85,1.02-1.63,2.06-2.35,3.15-.74,1.08-1.4,2.12-2.01,3.14-.6,1.01-1.1,1.88-1.47,2.6h6.73c.31-.59.66-1.22,1.06-1.9.4-.68.8-1.36,1.22-2.06.42-.69.86-1.27,1.31-1.73.46-.46.92-.88,1.37-1.27.46.41.94.87,1.43,1.37.49.51.94,1.12,1.39,1.84.44.72.84,1.41,1.19,2.08.36.67.66,1.22.89,1.66h7.1c-.87-1.64-2.03-3.52-3.46-5.63Z"/>
      <path class="cls-2" d="M202.03,25.8c-.55-1.52-1.35-2.8-2.38-3.84-1.04-1.05-2.31-1.87-3.81-2.44-1.52-.58-3.23-.86-5.15-.86-.8,0-1.63.03-2.5.1-.88.08-1.73.17-2.58.29-.84.11-1.65.26-2.41.42-.77.16-1.46.33-2.05.51v30.75h6.61v-8.78c.75.32,1.52.57,2.31.75.8.18,1.65.27,2.57.27,1.66,0,3.12-.29,4.4-.89,1.27-.59,2.33-1.41,3.19-2.48s1.51-2.34,1.95-3.81c.44-1.48.67-3.12.67-4.92s-.27-3.55-.81-5.06ZM191.4,37.38c-.68,0-1.36-.09-2.03-.27-.66-.17-1.2-.4-1.62-.67v-11.93c.33-.06.75-.11,1.25-.16.5-.05,1.05-.07,1.64-.07,1.8,0,3.17.62,4.09,1.84.92,1.23,1.37,2.86,1.37,4.9,0,4.23-1.56,6.35-4.7,6.35Z"/>
      <path class="cls-2" d="M223.61,21.6c-1.92-2.03-4.55-3.03-7.86-3.03-1.43,0-2.81.26-4.15.79s-2.54,1.32-3.57,2.35c-1.04,1.04-1.88,2.33-2.51,3.88-.63,1.55-.95,3.36-.95,5.43,0,1.72.24,3.32.74,4.8.49,1.47,1.23,2.75,2.25,3.84,1.03,1.08,2.31,1.92,3.86,2.55,1.56.62,3.38.93,5.49.93.83,0,1.65-.05,2.48-.12.83-.09,1.61-.2,2.33-.34.72-.14,1.38-.28,1.97-.46.6-.18,1.06-.35,1.43-.53l-.89-5.37c-.74.32-1.69.6-2.85.82-1.18.23-2.37.34-3.58.34-1.89,0-3.41-.41-4.53-1.2-1.12-.8-1.75-1.88-1.9-3.24h15c.02-.36.06-.77.08-1.22.03-.46.05-.88.05-1.27,0-3.93-.96-6.92-2.87-8.94ZM211.36,28.51c.08-.57.23-1.12.42-1.66.19-.55.46-1.03.81-1.45.36-.41.8-.75,1.34-1,.53-.25,1.17-.37,1.91-.37s1.4.14,1.92.4c.52.27.95.61,1.29,1.02.34.42.59.89.75,1.43.17.53.26,1.08.29,1.64h-8.74Z"/>
      <path class="cls-2" d="M248.99,25c-.33-1.3-.87-2.42-1.64-3.37-.77-.94-1.81-1.68-3.14-2.2-1.31-.52-2.97-.77-4.95-.77s-3.81.14-5.59.42c-1.77.28-3.23.58-4.35.91v22.54h6.61v-18.01c.42-.06.89-.11,1.43-.16.53-.05,1.03-.07,1.51-.07,1.54,0,2.59.45,3.15,1.34.57.88.85,2.4.85,4.53v12.37h6.61v-13.18c0-1.6-.17-3.04-.49-4.35Z"/>
      <path class="cls-2" d="M269.46,33.59c-.23-.75-.61-1.41-1.15-2.01-.55-.61-1.3-1.18-2.24-1.7-.95-.52-2.15-1.05-3.6-1.58-.7-.27-1.29-.51-1.74-.74-.46-.23-.83-.43-1.1-.62-.26-.19-.44-.4-.53-.6-.08-.22-.12-.44-.12-.71,0-1.15,1.03-1.73,3.1-1.73,1.12,0,2.14.1,3.04.32.89.2,1.73.44,2.5.7l1.15-5.14c-.77-.31-1.8-.58-3.1-.83-1.3-.25-2.67-.37-4.09-.37-2.84,0-5.07.63-6.7,1.9-1.63,1.28-2.44,3.01-2.44,5.2,0,1.12.17,2.08.5,2.89.32.79.78,1.48,1.37,2.06.59.58,1.31,1.08,2.15,1.48.85.42,1.79.81,2.82,1.2,1.34.51,2.32.95,2.98,1.36.65.4.97.86.97,1.39,0,.68-.25,1.14-.76,1.38-.5.24-1.36.35-2.57.35s-2.32-.12-3.51-.37c-1.18-.25-2.33-.6-3.45-1.04l-1.11,5.37c.53.24,1.48.53,2.85.88,1.38.36,3.1.53,5.17.53,3.17,0,5.61-.59,7.35-1.77,1.73-1.18,2.59-2.92,2.59-5.23,0-.97-.11-1.82-.33-2.56Z"/>
      <path class="cls-2" d="M290.38,21.6c-1.92-2.03-4.54-3.03-7.86-3.03-1.41,0-2.81.26-4.14.79-1.35.53-2.55,1.32-3.58,2.35-1.04,1.04-1.87,2.33-2.5,3.88-.65,1.55-.96,3.36-.96,5.43,0,1.72.25,3.32.74,4.8.49,1.47,1.25,2.75,2.26,3.84,1.02,1.08,2.31,1.92,3.86,2.55,1.55.62,3.37.93,5.48.93.83,0,1.65-.05,2.49-.12.83-.09,1.6-.2,2.32-.34.72-.14,1.38-.28,1.98-.46.59-.18,1.06-.35,1.41-.53l-.88-5.37c-.75.32-1.7.6-2.86.82-1.17.23-2.35.34-3.58.34-1.89,0-3.4-.41-4.52-1.2-1.13-.8-1.77-1.88-1.91-3.24h15c.02-.36.06-.77.09-1.22.02-.46.05-.88.05-1.27,0-3.93-.96-6.92-2.89-8.94ZM278.13,28.51c.09-.57.23-1.12.42-1.66.19-.55.46-1.03.83-1.45.35-.41.79-.75,1.32-1,.53-.25,1.18-.37,1.91-.37s1.41.14,1.92.4c.52.27.95.61,1.29,1.02.34.42.59.89.76,1.43.16.53.26,1.08.28,1.64h-8.74Z"/>
      <path class="cls-2" d="M312.36,33.59c-.22-.75-.6-1.41-1.15-2.01-.54-.61-1.29-1.18-2.24-1.7-.94-.52-2.14-1.05-3.59-1.58-.71-.27-1.29-.51-1.75-.74s-.82-.43-1.09-.62c-.27-.19-.44-.4-.53-.6-.09-.22-.14-.44-.14-.71,0-1.15,1.04-1.73,3.11-1.73,1.12,0,2.13.1,3.03.32.91.2,1.74.44,2.51.7l1.14-5.14c-.77-.31-1.8-.58-3.1-.83-1.3-.25-2.66-.37-4.09-.37-2.83,0-5.07.63-6.69,1.9-1.63,1.28-2.44,3.01-2.44,5.2,0,1.12.16,2.08.49,2.89.33.79.78,1.48,1.38,2.06.59.58,1.3,1.08,2.15,1.48.84.42,1.78.81,2.82,1.2,1.32.51,2.32.95,2.97,1.36.66.4.97.86.97,1.39,0,.68-.25,1.14-.75,1.38-.51.24-1.36.35-2.57.35s-2.33-.12-3.51-.37c-1.19-.25-2.34-.6-3.46-1.04l-1.11,5.37c.53.24,1.48.53,2.86.88,1.37.36,3.1.53,5.17.53,3.16,0,5.6-.59,7.33-1.77,1.73-1.18,2.6-2.92,2.6-5.23,0-.97-.11-1.82-.34-2.56Z"/>
    </g>
    <g>
      <path class="cls-4" d="M126.91,55.18c1.23,1.05,2.51,2.81,2.51,5.73s-1.28,4.75-2.51,5.79c-1.21,1.05-3.23,1.92-5.97,1.92h-5.03v-15.38h5.03c2.73,0,4.76.87,5.97,1.94ZM124.79,64.89c.75-.71,1.57-1.89,1.57-3.97s-.82-3.3-1.57-4.01c-.77-.69-2.03-1.25-3.74-1.25h-2.19v10.5h2.19c1.71,0,2.96-.56,3.74-1.27Z"/>
      <path class="cls-4" d="M136.55,68.86c-3.33,0-5.78-1.98-5.78-5.46s2.57-5.77,5.72-5.77c3.39,0,5.44,2.18,5.44,5.06,0,.56-.05,1.45-.05,1.45h-8.11c.27,1.72,1.62,2.54,3.28,2.54,1.48,0,2.8-.65,3.33-1.09l1.14,1.54c-.61.62-2.28,1.74-4.96,1.74ZM136.46,59.75c-1.73,0-2.64,1.18-2.73,2.54h5.28c-.05-1.18-.5-2.54-2.55-2.54Z"/>
      <path class="cls-4" d="M147.57,66.72c1.09,0,1.59-.4,1.59-1.03,0-.56-.43-.87-1.84-1.34l-1.28-.42c-1.64-.53-2.48-1.49-2.48-3.08,0-1.96,1.82-3.23,3.94-3.23,1.96,0,3.05.51,3.96,1.16l-1.25,1.89c-.64-.47-1.57-.91-2.57-.91s-1.43.36-1.43.87c0,.47.36.85,1.59,1.23l.77.24c2.44.78,3.3,1.63,3.3,3.19,0,2.05-1.66,3.57-4.37,3.57-1.69,0-3.58-.67-4.46-1.67l1.18-1.94c1.3.98,2.41,1.47,3.35,1.47Z"/>
      <path class="cls-4" d="M156.73,57.83l-.05,1.58c.89-1.29,2.25-1.83,3.71-1.83,3.23,0,5.22,2.45,5.22,5.66s-2.07,5.57-5.42,5.57c-1.69,0-2.64-.58-3.55-1.65.03.67.01,1.36.02,2.02v3.5h-2.88v-14.86h2.96ZM162.65,63.25c0-1.87-1.18-3.34-3.07-3.34-1.75,0-2.98,1.32-2.98,3.34,0,1.81,1.21,3.39,3.07,3.39s2.98-1.58,2.98-3.39Z"/>
      <path class="cls-4" d="M172.7,68.86c-3.33,0-5.78-1.98-5.78-5.46s2.57-5.77,5.72-5.77c3.39,0,5.44,2.18,5.44,5.06,0,.56-.05,1.45-.05,1.45h-8.11c.27,1.72,1.62,2.54,3.28,2.54,1.48,0,2.8-.65,3.33-1.09l1.14,1.54c-.61.62-2.28,1.74-4.96,1.74ZM172.6,59.75c-1.73,0-2.64,1.18-2.73,2.54h5.28c-.05-1.18-.5-2.54-2.55-2.54Z"/>
      <path class="cls-4" d="M183.72,66.72c1.09,0,1.59-.4,1.59-1.03,0-.56-.43-.87-1.84-1.34l-1.28-.42c-1.64-.53-2.48-1.49-2.48-3.08,0-1.96,1.82-3.23,3.94-3.23,1.96,0,3.05.51,3.96,1.16l-1.25,1.89c-.64-.47-1.57-.91-2.57-.91s-1.43.36-1.43.87c0,.47.36.85,1.59,1.23l.77.24c2.44.78,3.3,1.63,3.3,3.19,0,2.05-1.66,3.57-4.37,3.57-1.69,0-3.58-.67-4.46-1.67l1.18-1.94c1.3.98,2.41,1.47,3.35,1.47Z"/>
      <path class="cls-4" d="M192.87,68.86c-2.14,0-3.87-1.14-3.87-3.39s2.25-3.12,4.53-3.28l2.64-.18v-.29c0-1.38-.93-2.03-2.46-2.03s-2.66.53-3.14.89l-.89-1.83c.84-.49,2.39-1.14,4.3-1.14s3.07.49,3.9,1.25c.8.76,1.21,1.74,1.21,3.57v6.17h-2.8l-.05-1.25c-.46.78-1.73,1.49-3.37,1.49ZM191.92,65.38c0,.91.71,1.54,1.91,1.54,1.14,0,1.98-.65,2.37-1.18v-1.98l-1.98.11c-1.55.09-2.3.6-2.3,1.52Z"/>
      <path class="cls-4" d="M205.31,66.72c1.09,0,1.59-.4,1.59-1.03,0-.56-.43-.87-1.84-1.34l-1.28-.42c-1.64-.53-2.48-1.49-2.48-3.08,0-1.96,1.82-3.23,3.94-3.23,1.96,0,3.05.51,3.96,1.16l-1.25,1.89c-.64-.47-1.57-.91-2.57-.91s-1.43.36-1.43.87c0,.47.36.85,1.59,1.23l.77.24c2.44.78,3.3,1.63,3.3,3.19,0,2.05-1.66,3.57-4.37,3.57-1.69,0-3.58-.67-4.46-1.67l1.18-1.94c1.3.98,2.41,1.47,3.35,1.47Z"/>
      <path class="cls-4" d="M221,68.86c-3.33,0-5.78-1.98-5.78-5.46s2.57-5.77,5.72-5.77c3.39,0,5.44,2.18,5.44,5.06,0,.56-.05,1.45-.05,1.45h-8.11c.27,1.72,1.62,2.54,3.28,2.54,1.48,0,2.8-.65,3.33-1.09l1.14,1.54c-.61.62-2.28,1.74-4.96,1.74ZM220.91,59.75c-1.73,0-2.64,1.18-2.73,2.54h5.28c-.05-1.18-.5-2.54-2.55-2.54Z"/>
      <path class="cls-4" d="M234.62,53.24l4.05,11.43,4.05-11.43h3.01l-5.81,15.4h-2.64l-5.81-15.4h3.14Z"/>
      <path class="cls-4" d="M248.66,52.95c1.02,0,1.75.67,1.75,1.58s-.73,1.58-1.75,1.58-1.75-.65-1.75-1.58.73-1.58,1.75-1.58ZM250.11,57.83v10.79h-2.92v-10.79h2.92Z"/>
      <path class="cls-4" d="M255.92,68.86c-2.14,0-3.87-1.14-3.87-3.39s2.25-3.12,4.53-3.28l2.64-.18v-.29c0-1.38-.93-2.03-2.46-2.03s-2.66.53-3.14.89l-.89-1.83c.84-.49,2.39-1.14,4.3-1.14s3.07.49,3.9,1.25c.8.76,1.21,1.74,1.21,3.57v6.17h-2.8l-.05-1.25c-.46.78-1.73,1.49-3.37,1.49ZM254.97,65.38c0,.91.71,1.54,1.91,1.54,1.14,0,1.98-.65,2.37-1.18v-1.98l-1.98.11c-1.55.09-2.3.6-2.3,1.52Z"/>
      <path class="cls-4" d="M274.37,71.05c-.96.98-2.37,1.89-5.01,1.89s-4.58-1.23-5.12-1.6l1.21-1.98c.71.49,2.5,1.27,3.92,1.27,1.57,0,2.39-.49,2.8-.96s.75-1.36.75-2.56v-.56c-.78,1.13-2.12,1.72-3.73,1.72-2.8,0-5.22-1.76-5.22-5.08,0-3.05,2.07-5.55,5.42-5.55,1.48,0,2.76.53,3.55,1.74-.02-.49-.02-1.14-.02-1.43v-.11h2.89v8.56c0,2.36-.5,3.7-1.43,4.66ZM273.07,62.98c0-1.52-1.18-3.1-3.17-3.1-1.84,0-2.98,1.4-2.98,3.1s1.09,3.05,3.07,3.05,3.07-1.36,3.07-3.05Z"/>
      <path class="cls-4" d="M283.6,68.86c-3.33,0-5.78-1.98-5.78-5.46s2.57-5.77,5.72-5.77c3.39,0,5.44,2.18,5.44,5.06,0,.56-.05,1.45-.05,1.45h-8.11c.27,1.72,1.62,2.54,3.28,2.54,1.48,0,2.8-.65,3.33-1.09l1.14,1.54c-.61.62-2.28,1.74-4.96,1.74ZM283.5,59.75c-1.73,0-2.64,1.18-2.73,2.54h5.28c-.05-1.18-.5-2.54-2.55-2.54Z"/>
      <path class="cls-4" d="M293.82,57.83l-.02,1.76c.66-1.4,1.93-1.96,3.37-1.96,3.17,0,3.96,2.01,3.96,4.59v6.4h-2.92v-5.77c0-1.6-.3-2.87-1.98-2.87-1.8,0-2.41,1.47-2.41,3.28v5.37h-2.92v-10.79h2.92Z"/>
      <path class="cls-4" d="M307.47,66.72c1.09,0,1.59-.4,1.59-1.03,0-.56-.43-.87-1.84-1.34l-1.28-.42c-1.64-.53-2.48-1.49-2.48-3.08,0-1.96,1.82-3.23,3.94-3.23,1.96,0,3.05.51,3.96,1.16l-1.25,1.89c-.64-.47-1.57-.91-2.57-.91s-1.43.36-1.43.87c0,.47.36.85,1.59,1.23l.77.24c2.44.78,3.3,1.63,3.3,3.19,0,2.05-1.66,3.57-4.37,3.57-1.69,0-3.58-.67-4.46-1.67l1.18-1.94c1.3.98,2.41,1.47,3.35,1.47Z"/>
    </g>
  </g>
</svg>