<svg id="Camada_1" data-name="Camada 1" xmlns="http://www.w3.org/2000/svg" width="130" height="57.5" viewBox="0 0 165 57.5"><defs><style>.cls-1 {
        fill: #fff;
      }

      .cls-2 {
        fill: #808285;
      }

      .cls-3 {
        fill: #00be28;
      }

      .cls-4 {
        fill: #abadae;
      }

      .cls-5 {
        fill: #3fa1ff;
      }</style></defs><path class="cls-1" cx="63.34" cy="45.75" r="36.04" d="M51.736 23.817a18.762 18.762 0 0 1 -18.762 18.762 18.762 18.762 0 0 1 -18.762 -18.762 18.762 18.762 0 0 1 37.524 0"/><path class="cls-5" d="M32.974 5.06c-10.365 0 -18.762 8.397 -18.762 18.762s8.397 18.762 18.762 18.762 18.762 -8.397 18.762 -18.762 -8.397 -18.762 -18.762 -18.762m9.334 26.431 -0.635 3.993c-0.073 0.443 -0.578 0.572 -1.129 0.276l-11.583 -6.149 -0.464 2.91c-0.084 0.51 -0.5 0.453 -0.943 -0.136l-3.613 -4.872 -3.618 -4.872c-0.443 -0.589 -0.354 -1.12 0.188 -1.192l4.488 -0.578 1.994 -0.261 3.134 1.666 -0.27 1.729 5.086 2.696 -0.182 1.176c-0.088 0.52 0.287 0.88 0.833 0.807l2.493 -0.317 3.363 1.781c0.546 0.296 0.937 0.89 0.864 1.332Zm3.134 -5.31 -4.488 0.583 -4.483 0.578c-0.542 0.063 -0.911 -0.296 -0.833 -0.812l0.458 -2.905 -11.583 -6.148c-0.552 -0.296 -0.943 -0.89 -0.874 -1.332l0.635 -3.993c0.078 -0.443 0.578 -0.572 1.129 -0.276l11.589 6.148 0.458 -2.91c0.084 -0.51 0.5 -0.453 0.943 0.136l3.613 4.872 3.618 4.872c0.443 0.589 0.354 1.12 -0.188 1.192Z"/><g><g><path class="cls-3" d="M162.21 52.204h-8.017a1.454 1.454 0 0 1 -1.458 -1.458v-8.017h8.017a1.456 1.456 0 0 1 1.458 1.458z"/><path class="cls-1" d="M157.139 49.972h-1.781c-0.14 0.011 -0.281 -0.026 -0.395 -0.104s-0.198 -0.198 -0.24 -0.333l-1.114 -2.873h1.192a0.614 0.614 0 0 1 0.401 0.104 0.625 0.625 0 0 1 0.235 0.339l0.494 1.463h0.198l1.114 -3.061h2.15c1.057 0 1.64 0.505 1.64 1.395 0 0.235 -0.058 0.464 -0.177 0.667s-0.296 0.365 -0.505 0.468c0.099 0.208 0.182 0.417 0.261 0.63 0.317 0.844 0.505 1.103 0.713 1.306h-1.135c-0.505 0 -0.818 -0.224 -1.01 -0.713l-0.693 -1.817c0.093 0.021 0.188 0.026 0.287 0.026 0.427 0 0.661 -0.146 0.661 -0.417s-0.192 -0.385 -0.583 -0.385h-0.453l-1.254 3.3Z"/></g><g><path class="cls-4" d="M102.192 47.415c0 0.317 -0.073 1.358 -1.041 1.358 -0.76 0 -0.864 -0.536 -0.864 -1.114v-2.696h-1.021v2.739c0 0.656 0.11 1.103 0.343 1.416 0.287 0.365 0.708 0.542 1.291 0.542 0.536 0 1.021 -0.224 1.317 -0.598v0.494h1.01v-4.591h-1.031v2.457Z"/><path class="cls-4" d="M109.334 44.885c-0.598 0 -1.083 0.276 -1.405 0.796 -0.235 -0.52 -0.693 -0.796 -1.332 -0.796 -0.557 0 -1.004 0.313 -1.244 0.661l0.011 -0.572h-1.031v4.581h1.031v-2.379c0 -0.65 0.261 -1.416 1.004 -1.416 0.51 0 0.739 0.349 0.739 1.135v2.66h1.031v-2.379c0 -0.65 0.261 -1.416 1.004 -1.416 0.51 0 0.749 0.359 0.749 1.135v2.66h1.021v-2.765c0 -1.26 -0.531 -1.9 -1.572 -1.9Z"/><path class="cls-4" d="M113.545 44.885c-0.781 0 -1.401 0.287 -1.703 0.458l-0.052 0.031 0.328 0.723 0.063 -0.041c0.063 -0.037 0.619 -0.375 1.306 -0.375s1.041 0.343 1.041 0.948v0.114l-1.129 0.041c-1.146 0.052 -1.807 0.572 -1.807 1.427 0 0.948 0.807 1.442 1.604 1.442 0.703 0 1.129 -0.349 1.353 -0.572l0.011 0.468h0.999v-2.65c0 -0.693 -0.146 -1.125 -0.494 -1.489 -0.359 -0.359 -0.844 -0.526 -1.52 -0.526m0.995 2.53v0.864c-0.11 0.162 -0.468 0.604 -1.067 0.604 -0.51 0 -0.854 -0.281 -0.854 -0.703 0 -0.542 0.516 -0.682 0.952 -0.703l0.973 -0.063Z"/><path class="cls-4" d="m120.662 46.978 -0.604 -0.218c-0.438 -0.14 -0.827 -0.291 -0.827 -0.604 0 -0.427 0.406 -0.49 0.645 -0.49 0.385 0 0.807 0.182 1.077 0.458l0.058 0.058 0.447 -0.661 -0.037 -0.037c-0.38 -0.406 -0.89 -0.604 -1.567 -0.604 -0.755 0 -1.567 0.421 -1.567 1.338 0 0.822 0.667 1.135 1.166 1.302l0.291 0.099c0.443 0.146 0.859 0.281 0.859 0.645 0 0.516 -0.552 0.572 -0.786 0.572 -0.406 0 -0.911 -0.25 -1.265 -0.619l-0.052 -0.052 -0.51 0.619 0.031 0.041c0.406 0.531 1.041 0.822 1.785 0.822 1.073 0 1.759 -0.578 1.759 -1.474 0 -0.542 -0.307 -0.948 -0.916 -1.202Z"/><path class="cls-4" d="M124.457 44.885c-1.405 0 -2.426 1.004 -2.426 2.389s1.021 2.379 2.426 2.379 2.415 -0.999 2.415 -2.379 -1.015 -2.389 -2.415 -2.389m1.379 2.359c0 0.89 -0.568 1.509 -1.379 1.509s-1.39 -0.619 -1.39 -1.509 0.572 -1.5 1.39 -1.5 1.379 0.619 1.379 1.5"/><path class="cls-4" x="245.35" y="82.51" width="1.96" height="12.67" d="M127.727 42.953h1.02v6.596h-1.02z"/><path class="cls-4" d="M132.787 47.415c0 0.317 -0.073 1.358 -1.041 1.358 -0.76 0 -0.864 -0.536 -0.864 -1.114v-2.696h-1.021v2.739c0 0.656 0.11 1.103 0.343 1.416 0.287 0.365 0.708 0.542 1.291 0.542 0.536 0 1.021 -0.224 1.317 -0.598v0.494h1.01v-4.591h-1.031v2.457Z"/><path class="cls-4" d="M138.351 48.217s-0.479 0.542 -1.312 0.542 -1.379 -0.609 -1.379 -1.52c0 -0.854 0.578 -1.474 1.379 -1.474s1.14 0.38 1.286 0.526l0.063 0.063 0.375 -0.775 -0.026 -0.031c-0.093 -0.11 -0.615 -0.661 -1.775 -0.661s-2.342 0.833 -2.342 2.379c0 1.202 0.739 2.135 1.854 2.348l-0.9 1.302h1.047l0.693 -1.276c1.021 -0.114 1.437 -0.656 1.457 -0.682l0.026 -0.031 -0.38 -0.781z"/><path class="cls-4" d="M141.136 44.885c-0.781 0 -1.401 0.287 -1.703 0.458l-0.052 0.031 0.328 0.723 0.063 -0.041c0.063 -0.037 0.619 -0.375 1.306 -0.375s1.041 0.343 1.041 0.948v0.114l-1.129 0.041c-1.146 0.052 -1.807 0.572 -1.807 1.427 0 0.948 0.807 1.442 1.604 1.442 0.703 0 1.129 -0.349 1.353 -0.572l0.011 0.468h0.999v-2.65c0 -0.693 -0.146 -1.125 -0.494 -1.489 -0.359 -0.359 -0.844 -0.526 -1.52 -0.526m0.995 2.53v0.864c-0.11 0.162 -0.468 0.604 -1.067 0.604 -0.51 0 -0.854 -0.281 -0.854 -0.703 0 -0.542 0.516 -0.682 0.952 -0.703l0.973 -0.063Z"/><path class="cls-4" d="M140.372 44.146c0.037 -0.172 0.146 -0.354 0.349 -0.354 0.151 0 0.287 0.084 0.443 0.177 0.203 0.125 0.438 0.266 0.775 0.266 0.484 0 0.89 -0.406 0.926 -0.922v-0.058l-0.557 -0.119 -0.011 0.067c-0.031 0.172 -0.151 0.339 -0.349 0.339 -0.151 0 -0.287 -0.084 -0.447 -0.177 -0.208 -0.125 -0.443 -0.266 -0.771 -0.266 -0.484 0 -0.89 0.412 -0.926 0.932v0.058l0.557 0.119 0.015 -0.063Z"/><path class="cls-4" d="M146.295 44.885c-1.405 0 -2.426 1.004 -2.426 2.389s1.021 2.379 2.426 2.379 2.415 -0.999 2.415 -2.379 -1.015 -2.389 -2.415 -2.389m1.379 2.359c0 0.89 -0.568 1.509 -1.379 1.509s-1.39 -0.619 -1.39 -1.509 0.572 -1.5 1.39 -1.5 1.379 0.619 1.379 1.5"/></g></g><g><g><path class="cls-2" d="M66.489 9.99a61.36 61.36 0 0 1 -0.542 1.952q-0.319 1.056 -0.65 2.119 -0.337 1.077 -0.682 2.093c-0.235 0.677 -0.447 1.297 -0.656 1.848a38.94 38.94 0 0 1 -0.661 -1.848q-0.336 -1.015 -0.671 -2.093 -0.337 -1.07 -0.65 -2.119a41.3 41.3 0 0 1 -0.546 -1.952h-3.65q1.086 3.647 2.306 6.741c1.22 3.094 1.614 3.868 2.405 5.403h2.853c0.792 -1.535 1.593 -3.342 2.4 -5.403a84.96 84.96 0 0 0 2.306 -6.741z"/><path class="cls-2" d="M79.708 11.244c-0.999 -1.057 -2.364 -1.578 -4.092 -1.578 -0.734 0 -1.463 0.136 -2.161 0.412s-1.323 0.687 -1.858 1.224c-0.542 0.542 -0.973 1.213 -1.306 2.02q-0.493 1.209 -0.494 2.827 0.001 1.344 0.385 2.499 0.385 1.148 1.176 1.999c0.531 0.562 1.202 0.999 2.01 1.327 0.807 0.323 1.755 0.484 2.853 0.484 0.432 0 0.859 -0.026 1.291 -0.063 0.438 -0.047 0.838 -0.104 1.213 -0.177s0.719 -0.146 1.031 -0.24c0.307 -0.093 0.552 -0.182 0.734 -0.276l-0.458 -2.795c-0.391 0.166 -0.885 0.313 -1.489 0.427a9.676 9.676 0 0 1 -1.863 0.177c-0.984 0 -1.77 -0.214 -2.359 -0.624a2.289 2.289 0 0 1 -0.989 -1.686h7.809c0.011 -0.188 0.031 -0.401 0.047 -0.635 0.011 -0.24 0.026 -0.458 0.026 -0.661 0 -2.046 -0.5 -3.603 -1.504 -4.654Zm-6.377 3.598q0.071 -0.444 0.218 -0.864c0.099 -0.287 0.24 -0.536 0.432 -0.755 0.182 -0.214 0.412 -0.391 0.687 -0.52s0.615 -0.192 0.995 -0.192 0.734 0.073 0.999 0.208q0.406 0.211 0.671 0.531 0.264 0.326 0.395 0.745 0.127 0.415 0.146 0.854H73.325Z"/><path class="cls-2" d="M91.832 19.209a35.4 35.4 0 0 0 -2.582 -3.311L93.468 9.995h-3.561l-2.411 3.404L85.102 9.995h-3.717c0.682 0.969 1.375 1.947 2.066 2.936 0.697 0.989 1.421 2.02 2.182 3.093a50.74 50.74 0 0 0 -1.302 1.489c-0.443 0.531 -0.848 1.073 -1.224 1.64a31.86 31.86 0 0 0 -1.047 1.634c-0.313 0.526 -0.572 0.978 -0.766 1.353h3.503q0.241 -0.459 0.552 -0.989c0.312 -0.53 0.417 -0.708 0.635 -1.073q0.329 -0.539 0.682 -0.9 0.361 -0.358 0.713 -0.661 0.361 0.322 0.745 0.713c0.255 0.266 0.49 0.583 0.723 0.958q0.345 0.562 0.619 1.083 0.283 0.522 0.464 0.864h3.696c-0.453 -0.854 -1.057 -1.833 -1.801 -2.931Z"/><path class="cls-2" d="M105.175 13.431a5.428 5.428 0 0 0 -1.239 -1.999A5.546 5.546 0 0 0 101.952 10.162c-0.792 -0.302 -1.681 -0.447 -2.681 -0.447q-0.623 -0.001 -1.302 0.052c-0.458 0.041 -0.9 0.088 -1.343 0.151a17.11 17.11 0 0 0 -2.321 0.484v16.008h3.441v-4.571q0.585 0.25 1.202 0.391c0.417 0.093 0.859 0.14 1.338 0.14 0.864 0 1.624 -0.151 2.29 -0.464 0.661 -0.307 1.213 -0.734 1.66 -1.291s0.786 -1.218 1.015 -1.984c0.229 -0.771 0.349 -1.624 0.349 -2.562s-0.14 -1.848 -0.421 -2.634Zm-5.534 6.029q-0.532 0 -1.057 -0.14a2.832 2.832 0 0 1 -0.844 -0.349v-6.21a8.968 8.968 0 0 1 1.504 -0.12c0.937 0 1.651 0.323 2.129 0.958 0.479 0.641 0.713 1.489 0.713 2.551 0 2.202 -0.812 3.305 -2.447 3.305Z"/><path class="cls-2" d="M116.408 11.244c-0.999 -1.057 -2.368 -1.578 -4.092 -1.578q-1.115 -0.001 -2.161 0.412c-1.045 0.413 -1.323 0.687 -1.858 1.224q-0.814 0.811 -1.306 2.02c-0.492 1.209 -0.494 1.749 -0.494 2.827 0 0.896 0.125 1.729 0.385 2.499 0.255 0.766 0.641 1.431 1.172 1.999 0.536 0.562 1.202 0.999 2.01 1.327 0.812 0.323 1.759 0.484 2.858 0.484 0.432 0 0.859 -0.026 1.291 -0.063q0.649 -0.068 1.213 -0.177a8.26 8.26 0 0 0 1.025 -0.24c0.313 -0.093 0.552 -0.182 0.745 -0.276l-0.464 -2.795a7.08 7.08 0 0 1 -1.483 0.427 9.794 9.794 0 0 1 -1.863 0.177c-0.984 0 -1.775 -0.214 -2.359 -0.624a2.289 2.289 0 0 1 -0.989 -1.686h7.809c0.011 -0.188 0.031 -0.401 0.041 -0.635a10.62 10.62 0 0 0 0.026 -0.661c0 -2.046 -0.5 -3.603 -1.494 -4.654Zm-6.377 3.598c0.041 -0.296 0.119 -0.583 0.218 -0.864a2.36 2.36 0 0 1 0.421 -0.755 2.124 2.124 0 0 1 0.697 -0.52q0.415 -0.194 0.995 -0.192c0.579 0.001 0.729 0.073 0.999 0.208q0.406 0.211 0.671 0.531 0.266 0.326 0.391 0.745c0.088 0.276 0.136 0.562 0.151 0.854h-4.55Z"/><path class="cls-2" d="M129.622 13.014a4.484 4.484 0 0 0 -0.854 -1.755q-0.599 -0.736 -1.634 -1.146c-0.682 -0.27 -1.546 -0.401 -2.577 -0.401s-1.984 0.073 -2.91 0.218c-0.922 0.146 -1.681 0.302 -2.264 0.473v11.734h3.441v-9.373q0.326 -0.045 0.745 -0.084a8.26 8.26 0 0 1 0.786 -0.037q1.202 0.001 1.64 0.697c0.296 0.458 0.443 1.25 0.443 2.359v6.439h3.441v-6.861c0 -0.833 -0.088 -1.582 -0.255 -2.264"/><path class="cls-2" d="M140.277 17.486a2.714 2.714 0 0 0 -0.598 -1.047q-0.432 -0.478 -1.166 -0.885a14.16 14.16 0 0 0 -1.874 -0.822 10.62 10.62 0 0 1 -0.906 -0.385 4.72 4.72 0 0 1 -0.572 -0.323 0.826 0.826 0 0 1 -0.276 -0.313 1.062 1.062 0 0 1 -0.063 -0.369q-0.002 -0.899 1.614 -0.9c0.583 0 1.114 0.052 1.582 0.166 0.464 0.104 0.9 0.229 1.302 0.365l0.598 -2.676c-0.401 -0.162 -0.937 -0.302 -1.614 -0.432s-1.39 -0.192 -2.129 -0.192q-2.216 -0.001 -3.488 0.989 -1.271 0.998 -1.27 2.707 0.001 0.873 0.261 1.504 0.251 0.618 0.713 1.073c0.461 0.454 0.682 0.562 1.12 0.771 0.443 0.218 0.932 0.421 1.468 0.624 0.697 0.266 1.208 0.494 1.552 0.708q0.507 0.31 0.505 0.723 0.001 0.531 -0.395 0.719c-0.261 0.125 -0.708 0.182 -1.338 0.182s-1.208 -0.063 -1.828 -0.192a11.328 11.328 0 0 1 -1.796 -0.542l-0.578 2.795q0.414 0.186 1.483 0.458c0.719 0.188 1.614 0.276 2.692 0.276 1.651 0 2.921 -0.307 3.827 -0.922q1.35 -0.92 1.349 -2.722a4.72 4.72 0 0 0 -0.172 -1.332Z"/><path class="cls-2" d="M151.169 11.244c-0.999 -1.057 -2.364 -1.578 -4.092 -1.578 -0.734 0 -1.463 0.136 -2.155 0.412a5.428 5.428 0 0 0 -1.863 1.224q-0.811 0.811 -1.302 2.02c-0.339 0.807 -0.5 1.749 -0.5 2.827q0.001 1.344 0.385 2.499c0.255 0.766 0.65 1.431 1.176 1.999 0.531 0.562 1.202 0.999 2.01 1.327 0.807 0.323 1.755 0.484 2.853 0.484 0.432 0 0.859 -0.026 1.297 -0.063q0.647 -0.068 1.208 -0.177c0.562 -0.109 0.719 -0.146 1.031 -0.24 0.307 -0.093 0.552 -0.182 0.734 -0.276l-0.458 -2.795c-0.391 0.166 -0.885 0.313 -1.489 0.427a9.44 9.44 0 0 1 -1.863 0.177c-0.984 0 -1.77 -0.214 -2.353 -0.624a2.266 2.266 0 0 1 -0.995 -1.686h7.809c0.011 -0.188 0.031 -0.401 0.047 -0.635 0.011 -0.24 0.026 -0.458 0.026 -0.661 0 -2.046 -0.5 -3.603 -1.504 -4.654Zm-6.377 3.598q0.071 -0.444 0.218 -0.864c0.099 -0.287 0.24 -0.536 0.432 -0.755 0.182 -0.214 0.412 -0.391 0.687 -0.52s0.615 -0.192 0.995 -0.192 0.734 0.073 0.999 0.208q0.406 0.211 0.671 0.531 0.264 0.326 0.395 0.745 0.127 0.415 0.146 0.854H144.786Z"/><path class="cls-2" d="M162.611 17.486a2.596 2.596 0 0 0 -0.598 -1.047q-0.422 -0.478 -1.166 -0.885a13.57 13.57 0 0 0 -1.869 -0.822q-0.552 -0.208 -0.911 -0.385c-0.359 -0.177 -0.427 -0.224 -0.568 -0.323s-0.229 -0.208 -0.276 -0.313a0.944 0.944 0 0 1 -0.073 -0.369q0.001 -0.899 1.619 -0.9c0.583 0 1.109 0.052 1.578 0.166 0.473 0.104 0.906 0.229 1.306 0.365l0.594 -2.676c-0.401 -0.162 -0.937 -0.302 -1.614 -0.432s-1.385 -0.192 -2.129 -0.192c-1.474 0 -2.64 0.328 -3.482 0.989q-1.271 0.998 -1.27 2.707 0 0.873 0.255 1.504c0.172 0.412 0.406 0.771 0.719 1.073q0.458 0.455 1.12 0.771c0.438 0.218 0.926 0.421 1.468 0.624 0.687 0.266 1.208 0.494 1.546 0.708 0.343 0.208 0.505 0.447 0.505 0.723q0 0.531 -0.391 0.719c-0.266 0.125 -0.708 0.182 -1.338 0.182s-1.213 -0.063 -1.828 -0.192a11.21 11.21 0 0 1 -1.801 -0.542l-0.578 2.795q0.413 0.186 1.489 0.458c0.713 0.188 1.614 0.276 2.692 0.276q2.466 0 3.816 -0.922c1.35 -0.922 1.353 -1.52 1.353 -2.722q0 -0.756 -0.177 -1.332Z"/></g><g><path class="cls-4" d="M66.068 28.726c0.641 0.546 1.306 1.463 1.306 2.983s-0.667 2.473 -1.306 3.014c-0.63 0.546 -1.681 0.999 -3.108 0.999h-2.618v-8.006h2.618c1.421 0 2.478 0.453 3.108 1.01m-1.103 5.055c0.391 -0.369 0.818 -0.984 0.818 -2.066s-0.427 -1.718 -0.818 -2.087c-0.401 -0.359 -1.057 -0.65 -1.947 -0.65h-1.14v5.466h1.14c0.89 0 1.541 -0.291 1.947 -0.661"/><path class="cls-4" d="M71.087 35.847c-1.733 0 -3.009 -1.031 -3.009 -2.843s1.338 -3.004 2.978 -3.004c1.765 0 2.832 1.135 2.832 2.634 0 0.291 -0.026 0.755 -0.026 0.755h-4.222c0.14 0.896 0.844 1.323 1.707 1.323 0.771 0 1.457 -0.339 1.733 -0.568l0.594 0.801c-0.317 0.323 -1.187 0.906 -2.582 0.906Zm-0.047 -4.742c-0.9 0 -1.375 0.615 -1.421 1.323h2.748c-0.026 -0.615 -0.261 -1.323 -1.327 -1.323"/><path class="cls-4" d="M76.823 34.733c0.568 0 0.827 -0.208 0.827 -0.536 0 -0.291 -0.224 -0.453 -0.958 -0.697l-0.667 -0.218c-0.854 -0.276 -1.291 -0.775 -1.291 -1.604 0 -1.021 0.948 -1.681 2.051 -1.681 1.021 0 1.588 0.266 2.061 0.604l-0.65 0.984c-0.333 -0.244 -0.818 -0.473 -1.338 -0.473s-0.745 0.188 -0.745 0.453c0 0.244 0.188 0.443 0.827 0.641l0.401 0.125c1.27 0.406 1.718 0.848 1.718 1.66 0 1.067 -0.864 1.858 -2.275 1.858 -0.88 0 -1.863 -0.349 -2.322 -0.87l0.615 -1.01c0.677 0.51 1.254 0.766 1.744 0.766"/><path class="cls-4" d="m81.592 30.105 -0.026 0.822c0.464 -0.671 1.172 -0.952 1.932 -0.952 1.681 0 2.718 1.276 2.718 2.946s-1.077 2.899 -2.821 2.899c-0.88 0 -1.375 -0.302 -1.848 -0.859 0.015 0.349 0.005 0.708 0.011 1.051v1.822h-1.5v-7.735h1.541Zm3.082 2.821c0 -0.973 -0.615 -1.739 -1.598 -1.739 -0.911 0 -1.552 0.687 -1.552 1.739 0 0.943 0.63 1.765 1.598 1.765s1.552 -0.822 1.552 -1.765"/><path class="cls-4" d="M89.905 35.847c-1.733 0 -3.009 -1.031 -3.009 -2.843s1.338 -3.004 2.978 -3.004c1.765 0 2.832 1.135 2.832 2.634 0 0.291 -0.026 0.755 -0.026 0.755h-4.222c0.14 0.896 0.844 1.323 1.707 1.323 0.771 0 1.457 -0.339 1.733 -0.568l0.594 0.801c-0.317 0.323 -1.187 0.906 -2.582 0.906Zm-0.052 -4.742c-0.9 0 -1.375 0.615 -1.421 1.323h2.748c-0.026 -0.615 -0.261 -1.323 -1.327 -1.323"/><path class="cls-4" d="M95.643 34.733c0.568 0 0.827 -0.208 0.827 -0.536 0 -0.291 -0.224 -0.453 -0.958 -0.697l-0.667 -0.218c-0.854 -0.276 -1.291 -0.775 -1.291 -1.604 0 -1.021 0.948 -1.681 2.051 -1.681 1.021 0 1.588 0.266 2.061 0.604l-0.65 0.984c-0.333 -0.244 -0.818 -0.473 -1.338 -0.473s-0.745 0.188 -0.745 0.453c0 0.244 0.188 0.443 0.827 0.641l0.401 0.125c1.27 0.406 1.718 0.848 1.718 1.66 0 1.067 -0.864 1.858 -2.275 1.858 -0.88 0 -1.863 -0.349 -2.322 -0.87l0.615 -1.01c0.677 0.51 1.254 0.766 1.744 0.766"/><path class="cls-4" d="M100.406 35.847c-1.114 0 -2.014 -0.594 -2.014 -1.765s1.172 -1.624 2.359 -1.707l1.375 -0.093v-0.151c0 -0.719 -0.484 -1.057 -1.28 -1.057s-1.385 0.276 -1.634 0.464l-0.464 -0.952c0.438 -0.255 1.244 -0.594 2.238 -0.594s1.598 0.255 2.031 0.65c0.417 0.395 0.63 0.906 0.63 1.858v3.212h-1.457l-0.026 -0.65c-0.24 0.406 -0.9 0.775 -1.755 0.775Zm-0.494 -1.811c0 0.473 0.369 0.801 0.995 0.801 0.594 0 1.031 -0.339 1.234 -0.615v-1.031l-1.031 0.058c-0.807 0.047 -1.198 0.313 -1.198 0.792Z"/><path class="cls-4" d="M106.882 34.733c0.568 0 0.827 -0.208 0.827 -0.536 0 -0.291 -0.224 -0.453 -0.958 -0.697l-0.667 -0.218c-0.854 -0.276 -1.291 -0.775 -1.291 -1.604 0 -1.021 0.948 -1.681 2.051 -1.681 1.021 0 1.588 0.266 2.061 0.604l-0.65 0.984c-0.333 -0.244 -0.818 -0.473 -1.338 -0.473s-0.745 0.188 -0.745 0.453c0 0.244 0.188 0.443 0.827 0.641l0.401 0.125c1.27 0.406 1.718 0.848 1.718 1.66 0 1.067 -0.864 1.858 -2.275 1.858 -0.88 0 -1.863 -0.349 -2.322 -0.87l0.615 -1.01c0.677 0.51 1.254 0.766 1.744 0.766"/><path class="cls-4" d="M115.05 35.847c-1.733 0 -3.009 -1.031 -3.009 -2.843s1.338 -3.004 2.978 -3.004c1.765 0 2.832 1.135 2.832 2.634 0 0.291 -0.026 0.755 -0.026 0.755h-4.222c0.14 0.896 0.844 1.323 1.707 1.323 0.771 0 1.457 -0.339 1.733 -0.568l0.594 0.801c-0.317 0.323 -1.187 0.906 -2.582 0.906Zm-0.047 -4.742c-0.9 0 -1.375 0.615 -1.421 1.323h2.748c-0.026 -0.615 -0.261 -1.323 -1.327 -1.323"/><path class="cls-4" d="m122.141 27.716 2.109 5.951 2.109 -5.951h1.567l-3.024 8.017h-1.375l-3.024 -8.017h1.634Z"/><path class="cls-4" d="M129.45 27.565c0.531 0 0.911 0.349 0.911 0.822s-0.38 0.822 -0.911 0.822 -0.911 -0.339 -0.911 -0.822 0.38 -0.822 0.911 -0.822m0.755 2.541v5.617h-1.52v-5.617z"/><path class="cls-4" d="M133.229 35.847c-1.114 0 -2.014 -0.594 -2.014 -1.765s1.172 -1.624 2.359 -1.707l1.375 -0.093v-0.151c0 -0.719 -0.484 -1.057 -1.28 -1.057s-1.385 0.276 -1.634 0.464l-0.464 -0.952c0.438 -0.255 1.244 -0.594 2.238 -0.594s1.598 0.255 2.031 0.65c0.417 0.395 0.63 0.906 0.63 1.858v3.212h-1.457l-0.026 -0.65c-0.24 0.406 -0.9 0.775 -1.755 0.775Zm-0.494 -1.811c0 0.473 0.369 0.801 0.995 0.801 0.594 0 1.031 -0.339 1.234 -0.615v-1.031l-1.031 0.058c-0.807 0.047 -1.198 0.313 -1.198 0.792Z"/><path class="cls-4" d="M142.834 36.988c-0.5 0.51 -1.234 0.984 -2.608 0.984s-2.385 -0.641 -2.666 -0.833l0.63 -1.031c0.369 0.255 1.302 0.661 2.04 0.661 0.818 0 1.244 -0.255 1.457 -0.5s0.391 -0.708 0.391 -1.332v-0.291c-0.406 0.589 -1.103 0.896 -1.942 0.896 -1.457 0 -2.718 -0.916 -2.718 -2.644 0 -1.588 1.077 -2.89 2.821 -2.89 0.771 0 1.437 0.276 1.848 0.906 -0.011 -0.255 -0.011 -0.594 -0.011 -0.745v-0.058h1.504v4.456c0 1.228 -0.261 1.926 -0.745 2.426Zm-0.677 -4.201c0 -0.792 -0.615 -1.614 -1.651 -1.614 -0.958 0 -1.552 0.729 -1.552 1.614s0.568 1.588 1.598 1.588 1.598 -0.708 1.598 -1.588Z"/><path class="cls-4" d="M147.639 35.847c-1.733 0 -3.009 -1.031 -3.009 -2.843s1.338 -3.004 2.978 -3.004c1.765 0 2.832 1.135 2.832 2.634 0 0.291 -0.026 0.755 -0.026 0.755h-4.222c0.14 0.896 0.844 1.323 1.707 1.323 0.771 0 1.457 -0.339 1.733 -0.568l0.594 0.801c-0.317 0.323 -1.187 0.906 -2.582 0.906Zm-0.052 -4.742c-0.9 0 -1.375 0.615 -1.421 1.323h2.748c-0.026 -0.615 -0.261 -1.323 -1.327 -1.323"/><path class="cls-4" d="m152.959 30.105 -0.011 0.916c0.343 -0.729 1.004 -1.021 1.755 -1.021 1.651 0 2.061 1.047 2.061 2.389v3.332h-1.52v-3.004c0 -0.833 -0.156 -1.494 -1.031 -1.494 -0.937 0 -1.254 0.766 -1.254 1.707v2.795h-1.52v-5.616h1.52Z"/><path class="cls-4" d="M160.066 34.733c0.568 0 0.827 -0.208 0.827 -0.536 0 -0.291 -0.224 -0.453 -0.958 -0.697l-0.667 -0.218c-0.854 -0.276 -1.291 -0.775 -1.291 -1.604 0 -1.021 0.948 -1.681 2.051 -1.681 1.021 0 1.588 0.266 2.061 0.604l-0.65 0.984c-0.333 -0.244 -0.818 -0.473 -1.338 -0.473s-0.745 0.188 -0.745 0.453c0 0.244 0.188 0.443 0.827 0.641l0.401 0.125c1.27 0.406 1.718 0.848 1.718 1.66 0 1.067 -0.864 1.858 -2.275 1.858 -0.88 0 -1.863 -0.349 -2.322 -0.87l0.615 -1.01c0.677 0.51 1.254 0.766 1.744 0.766"/></g></g></svg>